<?xml version="1.0" standalone="no"?>
<!DOCTYPE svg PUBLIC "-//W3C//DTD SVG 1.1//EN" "http://www.w3.org/Graphics/SVG/1.1/DTD/svg11.dtd" >
<svg xmlns="http://www.w3.org/2000/svg">
<metadata></metadata>
<defs>
<font id="segoe_condensedbold" horiz-adv-x="918" >
<font-face units-per-em="2048" ascent="1638" descent="-410" />
<missing-glyph horiz-adv-x="469" />
<glyph horiz-adv-x="2048" />
<glyph horiz-adv-x="2048" />
<glyph unicode="&#xd;" horiz-adv-x="469" d="M0 0z" />
<glyph unicode=" " horiz-adv-x="469" d="M0 0z" />
<glyph unicode="!" horiz-adv-x="571" d="M127 143q0 74 44.5 118t115.5 44q74 0 116.5 -45.5t42.5 -116.5q0 -68 -43 -114.5t-116 -46.5q-69 0 -114.5 45t-45.5 116zM137 1434h291l-39 -973h-213z" />
<glyph unicode="&#x22;" horiz-adv-x="821" d="M133 1460h221l-28 -444h-166zM467 1460h221l-29 -446h-163z" />
<glyph unicode="#" horiz-adv-x="952" d="M43 479l25 154h135l47 270h-144l21 154h147l60 366h164l-62 -366h178l60 366h164l-62 -366h131l-26 -154h-127l-49 -270h143l-31 -154h-139l-64 -366h-157l61 366h-180l-64 -366h-159l61 366h-133zM362 633h179l51 270h-180z" />
<glyph unicode="$" d="M82 1038q0 155 87 262t237 127v193h114v-188q157 -7 252 -62v-229q-134 87 -252 94v-438q328 -142 328 -414q0 -144 -92.5 -250t-235.5 -127v-215h-114v211q-143 4 -300 90v240q139 -119 300 -133v419q-324 126 -324 420zM291 1053q0 -138 115 -203v375 q-52 -12 -83.5 -62.5t-31.5 -109.5zM520 203q53 12 86 60.5t33 113.5q0 113 -119 184v-358z" />
<glyph unicode="%" horiz-adv-x="1419" d="M76 1071q0 179 80.5 282t212.5 103q128 0 203 -97.5t75 -266.5q0 -172 -81 -277.5t-212 -105.5q-127 0 -202.5 99t-75.5 263zM254 -6l709 1440h200l-708 -1440h-201zM260 1077q0 -205 102 -205q101 0 101 211t-96 211q-51 0 -79 -60.5t-28 -156.5zM772 340 q0 180 81.5 282.5t211.5 102.5t205.5 -97t75.5 -268t-80.5 -275.5t-214.5 -104.5q-127 0 -203 99.5t-76 260.5zM958 346q0 -205 101 -205q100 0 100 213q0 209 -96 209q-52 0 -78.5 -62t-26.5 -155z" />
<glyph unicode="&#x26;" horiz-adv-x="1157" d="M63 373q0 229 263 409q-119 170 -119 324t87 253t236 99q144 0 228 -87t84 -222q0 -225 -242 -385l217 -297q51 128 51 307h205q0 -274 -133 -481l211 -293h-270l-84 115q-134 -140 -332 -140q-185 0 -293.5 109.5t-108.5 288.5zM303 383q0 -96 50.5 -159.5t133.5 -63.5 q115 0 205 104l-262 367q-127 -96 -127 -248zM416 1135q0 -110 88 -228q131 90 131 232q0 147 -109 147q-49 0 -79.5 -44t-30.5 -107z" />
<glyph unicode="'" horiz-adv-x="487" d="M133 1460h221l-28 -444h-166z" />
<glyph unicode="(" horiz-adv-x="629" d="M145 553q0 498 254 881h211q-233 -397 -233 -881q0 -473 235 -866h-213q-254 354 -254 866z" />
<glyph unicode=")" horiz-adv-x="629" d="M18 -313q234 387 234 866q0 484 -234 881h213q254 -389 254 -881q0 -513 -254 -866h-213z" />
<glyph unicode="*" horiz-adv-x="758" d="M61 1071l54 184l200 -88l-32 267h190l-33 -267l203 86l53 -182l-229 -35l195 -188l-144 -127l-141 225l-144 -225l-143 125l193 188z" />
<glyph unicode="+" horiz-adv-x="1067" d="M123 516v164h330v381h161v-381h328v-164h-328v-381h-161v381h-330z" />
<glyph unicode="," horiz-adv-x="487" d="M39 -242l88 500h256l-135 -500h-209z" />
<glyph unicode="-" horiz-adv-x="643" d="M111 467v184h424v-184h-424z" />
<glyph unicode="." horiz-adv-x="487" d="M84 143q0 74 44.5 118t115.5 44q74 0 116.5 -45.5t42.5 -116.5q0 -68 -43 -114.5t-116 -46.5q-69 0 -114.5 45t-45.5 116z" />
<glyph unicode="/" horiz-adv-x="717" d="M-43 -238l547 1672h233l-549 -1672h-231z" />
<glyph unicode="0" d="M55 696q0 762 422 762q387 0 387 -731q0 -752 -409 -752q-400 0 -400 721zM326 705q0 -274 31 -394.5t102 -120.5q75 0 106 130t31 403q0 261 -25 390.5t-106 129.5q-74 0 -106.5 -126t-32.5 -412z" />
<glyph unicode="1" d="M117 1133v213l495 118v-1257h219v-207h-702v207h223v991z" />
<glyph unicode="2" d="M84 0v190l272 404q197 293 197 459q0 89 -44.5 137.5t-115.5 48.5q-125 0 -262 -139v241q138 115 326 115q172 0 269 -101.5t97 -273.5q0 -239 -268 -598l-199 -260v-6h467v-217h-739z" />
<glyph unicode="3" d="M109 45v246q105 -101 227 -101q98 0 156.5 59t58.5 157q0 106 -65 164.5t-171 58.5h-94v215h60q109 0 169 56t60 149q0 85 -44 137.5t-130 52.5q-98 0 -193 -92v235q107 74 265 74q177 0 274.5 -100.5t97.5 -270.5q0 -115 -56 -206t-159 -131v-5q256 -73 256 -350 q0 -183 -118.5 -299.5t-321.5 -116.5q-155 0 -272 68z" />
<glyph unicode="4" d="M29 334v172l465 928h245v-912h131v-188h-131v-334h-241v334h-469zM225 522h273v491q0 36 2 64h-6q-22 -68 -37 -100z" />
<glyph unicode="5" d="M121 35v244q104 -89 225 -89q99 0 156 67t57 171q0 115 -62 178.5t-180 63.5q-67 0 -167 -19v783h628v-217h-401v-338l31 4q165 24 293 -87t128 -345q0 -213 -118.5 -343.5t-325.5 -130.5q-161 0 -264 58z" />
<glyph unicode="6" d="M70 641q0 378 135 596.5t389 218.5q121 0 201 -37v-235q-83 59 -183 59q-129 0 -203.5 -121t-82.5 -346h4q84 152 241 152q134 0 220 -118.5t86 -324.5q0 -203 -110.5 -355.5t-293.5 -152.5q-403 0 -403 664zM346 467q0 -120 38.5 -198.5t100.5 -78.5q59 0 93 74.5 t34 196.5q0 118 -35.5 186t-95.5 68t-97.5 -67.5t-37.5 -180.5z" />
<glyph unicode="7" d="M72 1223v211h751v-168l-356 -1266h-279l394 1223h-510z" />
<glyph unicode="8" d="M61 367q0 243 222 376v5q-189 116 -189 325q0 166 103 274.5t266 108.5q172 0 273.5 -100.5t101.5 -263.5q0 -233 -222 -342v-5q244 -107 244 -360q0 -190 -107.5 -299t-299.5 -109q-176 0 -284 105.5t-108 284.5zM303 383q0 -90 44.5 -145.5t115.5 -55.5q76 0 117 56 t41 151q0 174 -166 260q-152 -92 -152 -266zM334 1073q0 -151 129 -225q133 74 133 227q0 88 -35 136.5t-94 48.5q-58 0 -95.5 -51.5t-37.5 -135.5z" />
<glyph unicode="9" d="M49 934q0 229 109.5 375.5t292.5 146.5q194 0 299.5 -167.5t105.5 -504.5q0 -398 -127 -602.5t-369 -204.5q-128 0 -239 52v231q92 -70 207 -70q265 0 272 463h-4q-76 -147 -234 -147q-135 0 -224 113.5t-89 314.5zM313 981q0 -125 37.5 -193.5t95.5 -68.5 q59 0 96.5 70.5t37.5 177.5q0 119 -38.5 197.5t-99.5 78.5q-57 0 -93 -68.5t-36 -193.5z" />
<glyph unicode=":" horiz-adv-x="487" d="M84 143q0 74 44.5 118t115.5 44q74 0 116.5 -45.5t42.5 -116.5q0 -68 -43 -114.5t-116 -46.5q-69 0 -114.5 45t-45.5 116zM84 883q0 73 45 117t115 44q72 0 115.5 -45.5t43.5 -115.5q0 -69 -42.5 -115.5t-116.5 -46.5q-70 0 -115 46t-45 116z" />
<glyph unicode=";" horiz-adv-x="487" d="M35 -242l88 500h256l-135 -500h-209zM84 883q0 73 45 117t115 44q72 0 117 -46t45 -115q0 -71 -44.5 -116.5t-117.5 -45.5q-70 0 -115 46t-45 116z" />
<glyph unicode="&#x3c;" horiz-adv-x="1067" d="M133 535v116l752 391v-188l-529 -258v-4l531 -244v-192z" />
<glyph unicode="=" horiz-adv-x="1067" d="M123 307v164h819v-164h-819zM123 723v166h819v-166h-819z" />
<glyph unicode="&#x3e;" horiz-adv-x="1067" d="M182 158v190l531 244v4l-531 258v190l754 -393v-116z" />
<glyph unicode="?" horiz-adv-x="680" d="M37 1126v238q122 94 276 94q174 0 266.5 -94.5t92.5 -245.5q0 -201 -170 -395q-51 -59 -75 -108t-24 -123v-64h-215v102q0 150 105 293q53 71 80.5 129.5t27.5 137.5q0 67 -40.5 109t-102.5 42q-109 0 -221 -115zM145 143q0 74 44.5 118t115.5 44q74 0 118 -46t44 -116 q0 -69 -43.5 -115t-118.5 -46q-69 0 -114.5 45t-45.5 116z" />
<glyph unicode="@" horiz-adv-x="1509" d="M94 592q0 384 189.5 623t494.5 239q292 0 465.5 -187t173.5 -503q0 -264 -95.5 -423t-256.5 -159q-77 0 -133 46.5t-74 127.5h-4q-63 -174 -192 -174q-106 0 -172 94.5t-66 272.5q0 240 93 383t208 143q111 0 147 -114h5l6 94h188q-35 -505 -35 -598q0 -121 58 -121 q59 0 99 118.5t40 309.5q0 251 -115.5 392.5t-337.5 141.5q-227 0 -365.5 -197.5t-138.5 -516.5q0 -277 136 -448t358 -171q166 0 315 88v-166q-148 -75 -342 -75q-285 0 -467 209t-182 571zM612 553q0 -213 101 -213q67 0 109 125.5t42 290.5q0 81 -25.5 128.5t-68.5 47.5 q-70 0 -114 -116.5t-44 -262.5z" />
<glyph unicode="A" horiz-adv-x="1126" d="M10 0l398 1434h321l381 -1434h-291l-80 352h-358l-82 -352h-289zM422 569h270l-100 455q-10 47 -22 152q-3 21 -5 28h-6q-18 -127 -31 -172z" />
<glyph unicode="B" horiz-adv-x="1049" d="M129 0v1434h422q401 0 401 -342q0 -119 -63 -204t-164 -116v-4q120 -18 194 -112t74 -224q0 -200 -107.5 -316t-307.5 -116h-449zM395 238h135q87 0 134 52t47 142q0 86 -49 135t-127 49h-140v-378zM395 852h111q74 0 119 51t45 129q0 166 -181 166h-94v-346z" />
<glyph unicode="C" horiz-adv-x="975" d="M74 684q0 374 154 574t434 200q131 0 241 -49v-268q-102 76 -225 76q-148 0 -233 -136.5t-85 -371.5q0 -232 81 -362t225 -130q124 0 237 82v-256q-120 -68 -274 -68q-257 0 -406 190t-149 519z" />
<glyph unicode="D" horiz-adv-x="1171" d="M121 0v1434h381q598 0 598 -699q0 -342 -156.5 -538.5t-437.5 -196.5h-385zM397 238h111q144 0 224.5 131t80.5 362q0 218 -78.5 341.5t-228.5 123.5h-109v-958z" />
<glyph unicode="E" horiz-adv-x="858" d="M121 0v1434h659v-238h-383v-358h359v-238h-359v-362h408v-238h-684z" />
<glyph unicode="F" horiz-adv-x="840" d="M121 0v1434h661v-238h-385v-397h355v-236h-355v-563h-276z" />
<glyph unicode="G" horiz-adv-x="1118" d="M74 692q0 361 166 563.5t446 202.5q178 0 287 -59v-271q-116 89 -268 89q-157 0 -251 -138t-94 -379q0 -225 84.5 -354t214.5 -129q53 0 93 25v323h-191v238h461v-707q-136 -121 -371 -121q-260 0 -418.5 189.5t-158.5 527.5z" />
<glyph unicode="H" horiz-adv-x="1163" d="M121 0v1434h276v-580h369v580h276v-1434h-276v596h-369v-596h-276z" />
<glyph unicode="I" horiz-adv-x="518" d="M121 0v1434h276v-1434h-276z" />
<glyph unicode="J" horiz-adv-x="735" d="M27 14v262q76 -43 147 -43q96 0 139 75t43 249v877h277v-873q0 -310 -108 -448t-326 -138q-77 0 -172 39z" />
<glyph unicode="K" horiz-adv-x="1038" d="M121 0v1434h276v-686h4q14 42 27 65l295 621h307l-356 -686l389 -748h-320l-315 647q-12 26 -16 41q-6 21 -11 33h-4v-721h-276z" />
<glyph unicode="L" horiz-adv-x="836" d="M121 0v1434h276v-1196h404v-238h-680z" />
<glyph unicode="M" horiz-adv-x="1464" d="M121 0v1434h387l201 -873q30 -132 36 -221h5l7 53q13 121 25 176l189 865h372v-1434h-237v834q0 108 10 325h-6q-13 -91 -43 -241l-209 -918h-252l-219 905l-39 254h-8q10 -202 10 -399v-760h-229z" />
<glyph unicode="N" horiz-adv-x="1163" d="M121 0v1434h313l318 -838q15 -40 61 -205h2l-4 236v807h231v-1434h-307l-319 819q-20 52 -52 163q-8 28 -14 46h-4q6 -167 6 -293v-735h-231z" />
<glyph unicode="O" horiz-adv-x="1174" d="M74 698q0 361 136.5 560.5t385.5 199.5q248 0 376 -188t128 -549q0 -356 -134 -551t-384 -195q-243 0 -375.5 190t-132.5 533zM360 715q0 -498 228 -498q110 0 167.5 127t57.5 363q0 510 -219 510q-234 0 -234 -502z" />
<glyph unicode="P" horiz-adv-x="1016" d="M121 0v1434h414q205 0 318.5 -117t113.5 -340q0 -212 -125 -350t-330 -138h-115v-489h-276zM397 729h95q188 0 188 236q0 116 -53 173.5t-138 57.5h-92v-467z" />
<glyph unicode="Q" horiz-adv-x="1174" d="M74 698q0 360 135.5 560t388.5 200q249 0 375.5 -189.5t126.5 -547.5q0 -280 -86 -464.5t-246 -244.5l268 -374h-340l-186 344q-210 21 -323 211t-113 505zM360 715q0 -498 228 -498q110 0 167.5 127t57.5 363q0 510 -219 510q-234 0 -234 -502z" />
<glyph unicode="R" horiz-adv-x="1044" d="M121 0v1434h399q432 0 432 -387q0 -292 -254 -385v-5q114 -39 183 -254l129 -403h-308l-102 350q-59 201 -162 201h-41v-551h-276zM397 786h86q82 0 132.5 63t50.5 155q0 91 -46.5 144.5t-136.5 53.5h-86v-416z" />
<glyph unicode="S" horiz-adv-x="877" d="M66 1028q0 193 115 311.5t304 118.5q160 0 279 -53v-266q-124 78 -252 78q-66 0 -112 -45.5t-46 -112.5q0 -129 172 -230q166 -93 230.5 -195.5t64.5 -238.5q0 -186 -112 -303t-324 -117q-78 0 -171.5 23t-137.5 53v287q157 -121 297 -121q76 0 117.5 46t41.5 112 q0 67 -40 117.5t-154 117.5q-272 160 -272 418z" />
<glyph unicode="T" horiz-adv-x="922" d="M33 1196v238h858v-238h-293v-1196h-276v1196h-289z" />
<glyph unicode="U" horiz-adv-x="1118" d="M113 592v842h276v-873q0 -344 174 -344q91 0 129.5 82.5t38.5 253.5v881h277v-828q0 -631 -447 -631q-448 0 -448 617z" />
<glyph unicode="V" horiz-adv-x="1067" d="M25 1434h286l199 -945q15 -72 22 -182h7l5 38q7 71 21 149l199 940h278l-366 -1434h-295z" />
<glyph unicode="W" horiz-adv-x="1571" d="M16 1434h293l148 -918q8 -49 20 -182h4q14 82 27 182l141 918h301l142 -940q23 -153 22 -160h4q9 112 19 160l151 940h266l-292 -1434h-314l-145 924q-15 95 -23 172h-2q-3 -48 -16 -133q-4 -22 -6 -37l-158 -926h-313z" />
<glyph unicode="X" horiz-adv-x="1020" d="M6 0l354 729l-331 705h295l161 -400q17 -43 20 -60q4 -26 9 -50h2q16 67 33 112l164 398h286l-337 -705l350 -729h-299l-181 434q-10 25 -16 54l-10 49h-4q-15 -72 -29 -109l-178 -428h-289z" />
<glyph unicode="Y" horiz-adv-x="983" d="M8 1434h316l151 -514q10 -34 17 -80q6 -39 12 -70h4q16 116 24 143l154 521h291l-346 -924v-510h-277v504z" />
<glyph unicode="Z" horiz-adv-x="969" d="M49 0v195l541 1001h-504v238h819v-191l-524 -1005h532v-238h-864z" />
<glyph unicode="[" horiz-adv-x="629" d="M186 -326v1760h383v-170h-170v-1422h170v-168h-383z" />
<glyph unicode="\" horiz-adv-x="715" d="M4 1434h234l536 -1672h-229z" />
<glyph unicode="]" horiz-adv-x="629" d="M61 -158h170v1422h-170v170h383v-1760h-383v168z" />
<glyph unicode="^" horiz-adv-x="1067" d="M70 684l397 774h117l415 -774h-190l-281 561h-4l-266 -561h-188z" />
<glyph unicode="_" horiz-adv-x="850" d="M0 -178h850v-119h-850v119z" />
<glyph unicode="`" horiz-adv-x="600" d="M78 1485h227l215 -324h-188z" />
<glyph unicode="a" horiz-adv-x="893" d="M53 279q0 287 285 346l203 41v28q0 140 -150 140q-121 0 -264 -97v230q160 75 309 75q197 0 281 -96t84 -311v-635h-260v135h-4q-74 -153 -242 -153q-108 0 -175 80.5t-67 216.5zM305 319q0 -63 29.5 -96t71.5 -33q64 0 99.5 54.5t35.5 148.5v103l-119 -25 q-117 -25 -117 -152z" />
<glyph unicode="b" horiz-adv-x="977" d="M104 0v1516h261v-633h4q76 159 245 159q145 0 222 -131t77 -362q0 -269 -87 -418t-244 -149q-142 0 -213 124h-4v-106h-261zM358 459q0 -119 37 -190.5t99 -71.5q149 0 149 329q0 301 -141 301q-68 0 -106 -73.5t-38 -202.5v-92z" />
<glyph unicode="c" horiz-adv-x="725" d="M63 489q0 259 118.5 406t310.5 147q124 0 178 -43v-229q-56 59 -138 59q-91 0 -144.5 -88t-53.5 -233q0 -152 49 -231.5t137 -79.5q86 0 150 57v-213q-76 -59 -209 -59q-172 0 -285 143.5t-113 363.5z" />
<glyph unicode="d" horiz-adv-x="977" d="M63 492q0 256 91.5 403t253.5 147q139 0 200 -135h4v609h260v-1516h-260v127h-4q-73 -145 -231 -145q-153 0 -233.5 134.5t-80.5 375.5zM334 498q0 -301 141 -301t141 282v90q0 122 -35 190t-98 68q-149 0 -149 -329z" />
<glyph unicode="e" horiz-adv-x="887" d="M63 510q0 233 110 382.5t308 149.5q180 0 273.5 -122.5t93.5 -350.5v-139h-522q4 -240 225 -240q115 0 235 70v-215q-131 -63 -274 -63q-216 0 -332.5 135t-116.5 393zM326 614h276q0 108 -27.5 168t-99.5 60q-139 0 -149 -228z" />
<glyph unicode="f" horiz-adv-x="549" d="M16 811v213h119v154q0 167 87 261.5t253 94.5q35 0 61 -5q25 -6 44 -9v-213q-32 12 -76 12q-109 0 -109 -131v-164h166v-213h-166v-811h-260v811h-119z" />
<glyph unicode="g" horiz-adv-x="977" d="M63 492q0 256 91.5 403t253.5 147q138 0 200 -141h4v123h260v-899q0 -307 -125 -456.5t-385 -149.5q-133 0 -237 41v237q118 -63 227 -63q124 0 192 77t68 222v94h-4q-73 -145 -231 -145q-153 0 -233.5 134.5t-80.5 375.5zM334 498q0 -301 141 -301t141 282v90 q0 122 -35 190t-98 68q-149 0 -149 -329z" />
<glyph unicode="h" horiz-adv-x="979" d="M104 0v1516h261v-639h4q73 165 252 165q260 0 260 -315v-727h-258v662q0 165 -125 165q-60 0 -96.5 -46.5t-36.5 -121.5v-659h-261z" />
<glyph unicode="i" horiz-adv-x="467" d="M76 1325q0 72 45 115t112 43q72 0 116 -44t44 -114t-44 -115t-116 -45q-69 0 -113 47t-44 113zM104 0v1024h261v-1024h-261z" />
<glyph unicode="j" horiz-adv-x="467" d="M-94 -238q56 -28 90 -28q108 0 108 196v1094h261v-1030q0 -475 -334 -475q-59 0 -125 30v213zM76 1325q0 72 45 115t112 43q72 0 116 -44t44 -114t-44 -115t-116 -45q-69 0 -113 47t-44 113z" />
<glyph unicode="k" horiz-adv-x="895" d="M104 0v1516h261v-973h2l223 481h291l-263 -477l279 -547h-291l-239 522h-2v-522h-261z" />
<glyph unicode="l" horiz-adv-x="467" d="M104 0v1516h261v-1516h-261z" />
<glyph unicode="m" horiz-adv-x="1456" d="M104 0v1024h261v-145h4q78 163 247 163q174 0 228 -174q90 174 262 174q254 0 254 -311v-731h-260v664q0 163 -113 163q-54 0 -89.5 -42t-35.5 -117v-668h-260v662q0 165 -113 165q-51 0 -87.5 -43t-36.5 -120v-664h-261z" />
<glyph unicode="n" horiz-adv-x="979" d="M104 0v1024h261v-147h4q73 165 252 165q260 0 260 -315v-727h-258v662q0 165 -125 165q-60 0 -96.5 -46.5t-36.5 -121.5v-659h-261z" />
<glyph unicode="o" horiz-adv-x="958" d="M63 514q0 253 111 390.5t307 137.5q197 0 306.5 -136t109.5 -378q0 -264 -108.5 -405t-311.5 -141q-198 0 -306 139t-108 393zM334 516q0 -319 147 -319q146 0 146 329q0 301 -146 301q-147 0 -147 -311z" />
<glyph unicode="p" horiz-adv-x="977" d="M104 -471v1495h261v-143h2q77 161 243 161q145 0 224 -128.5t79 -364.5q0 -269 -87 -418t-246 -149q-140 0 -213 127h-2v-580h-261zM358 469q0 -131 37 -202.5t103 -71.5q145 0 145 344q0 288 -139 288q-146 0 -146 -286v-72z" />
<glyph unicode="q" horiz-adv-x="977" d="M63 485q0 268 92 412.5t246 144.5q143 0 207 -141h4v123h260v-1495h-260v596h-4q-78 -143 -231 -143q-146 0 -230 128.5t-84 374.5zM334 502q0 -305 137 -305q71 0 109 73t38 201v96q0 120 -35.5 190t-99.5 70q-149 0 -149 -325z" />
<glyph unicode="r" horiz-adv-x="651" d="M104 0v1024h261v-170h4q54 188 211 188q31 0 65 -10v-252q-45 19 -90 19q-190 0 -190 -283v-516h-261z" />
<glyph unicode="s" horiz-adv-x="725" d="M68 733q0 138 94.5 223.5t261.5 85.5q115 0 211 -38v-222q-106 58 -186 58q-121 0 -121 -101q0 -32 21.5 -59t109.5 -76q133 -76 176 -147t43 -164q0 -138 -92.5 -224.5t-268.5 -86.5q-152 0 -245 51v227q109 -76 227 -76q121 0 121 101q0 40 -32 67.5t-91 61.5 q-143 82 -186 157t-43 162z" />
<glyph unicode="t" horiz-adv-x="606" d="M12 811v213h125v229q1 0 21 7q226 75 239 75v-311h174v-213h-174v-494q0 -120 95 -120q44 0 79 18v-201q-80 -32 -172 -32q-262 0 -262 313v516h-125z" />
<glyph unicode="u" horiz-adv-x="979" d="M96 297v727h260v-662q0 -165 125 -165q60 0 96.5 46.5t36.5 121.5v659h260v-1024h-260v147h-4q-76 -165 -252 -165q-262 0 -262 315z" />
<glyph unicode="v" horiz-adv-x="891" d="M8 1024h271l127 -645q19 -99 24 -189h4q11 97 31 185l153 649h267l-299 -1024h-316z" />
<glyph unicode="w" horiz-adv-x="1325" d="M16 1024h267l102 -631q16 -99 16 -160h7q8 84 18 160l123 631h266l111 -633q5 -30 9 -80l5 -78h6q0 79 17 158l108 633h238l-228 -1024h-288l-111 594q-11 57 -18 182h-5q-6 -100 -20 -180l-115 -596h-291z" />
<glyph unicode="x" horiz-adv-x="862" d="M0 0l283 516l-273 508h295l101 -254q15 -38 28 -92h4q14 65 23 86l125 260h268l-285 -508l289 -516h-285l-124 262q-16 34 -29 90h-4q-15 -62 -29 -92l-115 -260h-272z" />
<glyph unicode="y" horiz-adv-x="860" d="M-8 1024h291l133 -604q18 -80 26 -174h2q3 15 6 36q10 70 25 136l135 606h269l-316 -1102q-116 -403 -368 -403q-88 0 -158 32v211q37 -28 100 -28q93 0 131 116l49 152z" />
<glyph unicode="z" horiz-adv-x="786" d="M25 0v152l415 659h-381v213h684v-182l-391 -629h398v-213h-725z" />
<glyph unicode="{" horiz-adv-x="629" d="M98 432v166q119 4 119 166v270q0 245 81 322.5t253 77.5v-177q-125 0 -125 -176v-288q0 -209 -117 -273v-4q117 -81 117 -340v-205q0 -188 125 -188v-172q-153 0 -243.5 72t-90.5 305v248q0 187 -119 196z" />
<glyph unicode="|" horiz-adv-x="465" d="M135 -481v2048h197v-2048h-197z" />
<glyph unicode="}" horiz-adv-x="629" d="M82 -215q123 0 123 182v275q0 208 119 270v4q-119 80 -119 342v217q0 185 -123 185v174q161 0 246.5 -77.5t85.5 -301.5v-260q0 -190 118 -197v-166q-118 -4 -118 -164v-260q0 -246 -82 -321.5t-250 -75.5v174z" />
<glyph unicode="~" horiz-adv-x="1067" d="M96 434q6 154 76 239t193 85q99 0 192 -78q93 -80 145 -80q51 0 78 46.5t27 115.5h166q-7 -156 -78 -241t-184 -85q-108 0 -209 90q-84 68 -133 68q-104 0 -111 -160h-162z" />
<glyph unicode="&#xa0;" horiz-adv-x="469" d="M0 0z" />
<glyph unicode="&#xa1;" horiz-adv-x="571" d="M125 883q0 70 44 115.5t118 45.5q69 0 114 -45.5t45 -115.5q0 -72 -43.5 -117t-115.5 -45q-71 0 -116.5 44.5t-45.5 117.5zM145 -410l39 975h213l39 -975h-291z" />
<glyph unicode="&#xa2;" d="M123 680q0 222 108 368t291 164v209h125v-207q72 -4 131 -38v-234q-51 47 -131 59v-649q75 12 129 60v-205q-40 -32 -129 -47v-199h-125v199q-195 23 -297 160t-102 360zM362 672q0 -119 46 -202.5t114 -102.5v622q-160 -66 -160 -317z" />
<glyph unicode="&#xa3;" d="M121 0v186q155 56 155 279v164h-139v182h139v213q0 202 94.5 318t262.5 116q87 0 176 -51v-213q-79 63 -154 63q-143 0 -143 -219v-227h205v-182h-205v-131q0 -194 -115 -297h488v-201h-764z" />
<glyph unicode="&#xa4;" horiz-adv-x="1139" d="M80 354l139 135q-74 115 -74 236q0 122 74 236l-139 137l113 119l139 -142q109 74 237 74q131 0 236 -74l141 142l113 -119l-139 -137q73 -111 73 -236q0 -119 -73 -236l139 -135l-113 -118l-139 141q-109 -74 -238 -74q-128 0 -237 74l-139 -141zM309 727 q0 -107 76.5 -183.5t183.5 -76.5q108 0 184 77t76 183t-77 182t-183 76t-183 -75t-77 -183z" />
<glyph unicode="&#xa5;" d="M23 1434h256l163 -484q32 -96 33 -110h2l31 106l164 488h239l-284 -650h209v-161h-244v-181h244v-163h-244v-279h-254v279h-250v163h250v181h-250v161h211z" />
<glyph unicode="&#xa6;" horiz-adv-x="465" d="M135 401h197v-882h-197v882zM135 692v875h197v-875h-197z" />
<glyph unicode="&#xa7;" horiz-adv-x="791" d="M113 725q0 145 116 250q-90 90 -90 231q0 121 80.5 203t214.5 82q111 0 203 -55v-203q-108 82 -193 82q-48 0 -79 -33.5t-31 -83.5q0 -56 34.5 -97.5t145.5 -105.5q197 -108 197 -293q0 -153 -125 -268q78 -84 78 -196q0 -136 -84 -220t-228 -84q-127 0 -229 70v201 q123 -94 221 -94q57 0 92 36t35 89q0 46 -27 84t-135 98q-196 111 -196 307zM291 743q0 -76 47.5 -122.5t124.5 -90.5q69 61 69 148q0 68 -42 113t-134 92q-65 -58 -65 -140z" />
<glyph unicode="&#xa8;" horiz-adv-x="655" d="M-2 1298q0 60 39 99t100 39q60 0 98.5 -38.5t38.5 -99.5q0 -58 -36 -97.5t-101 -39.5q-60 0 -99.5 39t-39.5 98zM379 1298q0 60 39 99t100 39q60 0 98.5 -38.5t38.5 -99.5q0 -58 -36 -97.5t-101 -39.5q-60 0 -99.5 39t-39.5 98z" />
<glyph unicode="&#xa9;" horiz-adv-x="1731" d="M104 713q0 312 220.5 528.5t545.5 216.5q321 0 538.5 -210t217.5 -529q0 -314 -221.5 -529t-540.5 -215q-325 0 -542.5 208.5t-217.5 529.5zM225 715q0 -274 186 -455.5t455 -181.5q266 0 452.5 183.5t186.5 453.5q0 272 -184 454.5t-455 182.5q-276 0 -458.5 -184 t-182.5 -453zM412 694q0 236 144 376t372 140q127 0 237 -55v-197q-108 74 -245 74q-131 0 -218.5 -87.5t-87.5 -233.5q0 -142 91.5 -229t222.5 -87t241 78v-184q-126 -66 -268 -66q-210 0 -349.5 135t-139.5 336z" />
<glyph unicode="&#xaa;" horiz-adv-x="682" d="M59 903q0 219 213 256l136 25q0 135 -109 135q-78 0 -188 -76v154q109 57 225 57q136 0 194 -77t58 -232v-436h-180v96h-5q-61 -109 -174 -109q-75 0 -122.5 59t-47.5 148zM240 936q0 -102 71 -102q44 0 70.5 52.5t26.5 108.5v72l-74 -12q-94 -15 -94 -119z" />
<glyph unicode="&#xab;" horiz-adv-x="944" d="M47 537l254 344h215l-258 -344l260 -336h-217zM426 537l256 344h213l-258 -344l260 -336h-215z" />
<glyph unicode="&#xac;" horiz-adv-x="1067" d="M123 657v162h819v-553h-162v391h-657z" />
<glyph unicode="&#xad;" horiz-adv-x="643" d="M111 467v184h424v-184h-424z" />
<glyph unicode="&#xae;" horiz-adv-x="1731" d="M104 713q0 312 220.5 528.5t545.5 216.5q321 0 538.5 -210t217.5 -529q0 -314 -221.5 -529t-540.5 -215q-325 0 -542.5 208.5t-217.5 529.5zM225 715q0 -274 186 -455.5t455 -181.5q266 0 452.5 183.5t186.5 453.5q0 272 -184 454.5t-455 182.5q-276 0 -458.5 -184 t-182.5 -453zM549 258v934h305q176 0 268 -69.5t92 -192.5q0 -192 -225 -248v-4q91 -23 146 -154l112 -266h-217l-84 236q-49 139 -135 139h-80v-375h-182zM731 772h129q73 0 115.5 37.5t42.5 99.5q0 133 -180 133h-107v-270z" />
<glyph unicode="&#xaf;" horiz-adv-x="850" d="M0 1612v119h850v-119h-850z" />
<glyph unicode="&#xb0;" horiz-adv-x="649" d="M47 1180q0 114 80.5 193t196.5 79t197 -79.5t81 -192.5q0 -114 -81 -195.5t-195 -81.5q-115 0 -197 81t-82 196zM184 1180q0 -59 41.5 -101.5t98.5 -42.5q58 0 98.5 43t40.5 101q0 56 -40 98.5t-97 42.5q-58 0 -100 -41.5t-42 -99.5z" />
<glyph unicode="&#xb1;" horiz-adv-x="1067" d="M123 0v164h819v-164h-819zM127 657v164h326v383h161v-383h330v-164h-330v-383h-161v383h-326z" />
<glyph unicode="&#xb2;" horiz-adv-x="655" d="M90 584v141l178 225q105 133 105 228q0 55 -27.5 86.5t-71.5 31.5q-87 0 -161 -82v162q93 78 211 78q110 0 174.5 -68.5t64.5 -189.5q0 -76 -37 -146t-145 -194l-92 -108v-5h278v-159h-477z" />
<glyph unicode="&#xb3;" horiz-adv-x="655" d="M102 614v152q80 -59 162 -59q125 0 125 127q0 51 -40 82.5t-109 31.5h-76v142h67q129 0 129 114q0 47 -28.5 77t-77.5 30q-65 0 -135 -58v146q81 55 184 55q106 0 170 -59.5t64 -159.5q0 -65 -34 -119.5t-97 -77.5q1 0 1 -1.5t-1 -2.5q78 -21 120.5 -76.5t42.5 -126.5 q0 -115 -78.5 -191.5t-197.5 -76.5q-106 0 -191 51z" />
<glyph unicode="&#xb4;" horiz-adv-x="600" d="M88 1161l217 324h225l-251 -324h-191z" />
<glyph unicode="&#xb5;" horiz-adv-x="985" d="M104 -328v1352h261v-625q0 -202 114 -202q69 0 106.5 61t37.5 164v602h258v-1024h-258v152h-5q-46 -170 -153 -170q-62 0 -96 36h-4v-346h-261z" />
<glyph unicode="&#xb6;" horiz-adv-x="1004" d="M78 1147q0 127 82.5 207t199.5 80h519v-140h-115v-1294h-150v1294h-125v-1294h-151v854q-114 8 -187 90t-73 203z" />
<glyph unicode="&#xb7;" horiz-adv-x="487" d="M84 696q0 72 44.5 116t115.5 44q73 0 116 -44.5t43 -115.5q0 -68 -41.5 -114.5t-117.5 -46.5q-69 0 -114.5 45t-45.5 116z" />
<glyph unicode="&#xb8;" horiz-adv-x="580" d="M117 -319q35 -11 57 -11q80 0 80 78q0 29 -19.5 50.5t-54.5 21.5h-15q-6 0 -15 -2v182h139v-92q145 -16 145 -160q0 -197 -241 -197q-16 0 -76 9v121z" />
<glyph unicode="&#xb9;" horiz-adv-x="651" d="M119 1225v155l325 76v-725h129v-147h-440v147h139v535z" />
<glyph unicode="&#xba;" horiz-adv-x="760" d="M70 1077q0 179 85 278t228 99t225 -102.5t82 -266.5q0 -181 -84 -285t-229 -104t-226 102.5t-81 278.5zM264 1077q0 -110 31 -170.5t84 -60.5q115 0 115 235q0 226 -113 226q-117 0 -117 -230z" />
<glyph unicode="&#xbb;" horiz-adv-x="944" d="M47 201l260 338l-258 342h213l256 -342l-256 -338h-215zM428 201l260 338l-260 342h215l256 -342l-256 -338h-215z" />
<glyph unicode="&#xbc;" horiz-adv-x="1509" d="M72 1225v155l325 76v-725h129v-147h-440v147h139v535zM291 0l700 1434h201l-703 -1434h-198zM879 190v121l272 539h205v-524h84v-136h-84v-190h-170v190h-307zM1020 326h166v302q0 21 2 40h-8q-20 -55 -31 -76z" />
<glyph unicode="&#xbd;" horiz-adv-x="1518" d="M72 1225v155l325 76v-725h129v-147h-440v147h139v535zM291 0l700 1434h201l-703 -1434h-198zM956 0v141l179 226q104 131 104 227q0 57 -28 88t-70 31q-88 0 -162 -82v162q93 77 211 77q111 0 175.5 -69.5t64.5 -188.5q0 -76 -36.5 -145t-146.5 -195l-92 -108v-4h279 v-160h-478z" />
<glyph unicode="&#xbe;" horiz-adv-x="1522" d="M102 614v152q80 -59 162 -59q125 0 125 127q0 51 -40 82.5t-109 31.5h-76v142h67q129 0 129 114q0 47 -28.5 77t-77.5 30q-65 0 -135 -58v146q81 55 184 55q106 0 170 -59.5t64 -159.5q0 -65 -34 -119.5t-97 -77.5q1 0 1 -1.5t-1 -2.5q78 -21 120.5 -76.5t42.5 -126.5 q0 -115 -78.5 -191.5t-197.5 -76.5q-106 0 -191 51zM309 0l703 1434h198l-702 -1434h-199zM883 190v121l274 539h203v-524h86v-136h-86v-190h-170v190h-307zM1024 326h166v302q0 21 2 40h-6q-26 -63 -33 -76z" />
<glyph unicode="&#xbf;" horiz-adv-x="680" d="M37 -92q0 197 168 395q53 61 75.5 107t22.5 125v63h215v-102q0 -155 -104 -295q-65 -90 -87 -141.5t-22 -122.5q0 -64 40 -108t104 -44q110 0 223 115v-238q-126 -94 -279 -94q-172 0 -264 93.5t-92 246.5zM242 881q0 71 43 117t116 46q69 0 114.5 -46t45.5 -117 t-43.5 -115.5t-116.5 -44.5t-116 44.5t-43 115.5z" />
<glyph unicode="&#xc0;" horiz-adv-x="1126" d="M10 0l398 1434h321l381 -1434h-291l-80 352h-358l-82 -352h-289zM291 1891h227l215 -324h-188zM422 569h270l-100 455q-10 47 -22 152q-3 21 -5 28h-6q-18 -127 -31 -172z" />
<glyph unicode="&#xc1;" horiz-adv-x="1126" d="M10 0l398 1434h321l381 -1434h-291l-80 352h-358l-82 -352h-289zM397 1567l215 323h228l-252 -323h-191zM422 569h270l-100 455q-10 47 -22 152q-3 21 -5 28h-6q-18 -127 -31 -172z" />
<glyph unicode="&#xc2;" horiz-adv-x="1126" d="M10 0l398 1434h321l381 -1434h-291l-80 352h-358l-82 -352h-289zM273 1567l190 326h193l190 -326h-174l-117 197l-118 -197h-164zM422 569h270l-100 455q-10 47 -22 152q-3 21 -5 28h-6q-18 -127 -31 -172z" />
<glyph unicode="&#xc3;" horiz-adv-x="1126" d="M10 0l398 1434h321l381 -1434h-291l-80 352h-358l-82 -352h-289zM233 1567q0 128 50 199.5t130 71.5q66 0 139 -41q82 -50 113 -50q66 0 66 113h139q0 -128 -50.5 -200t-129.5 -72q-43 0 -77 13t-117 62q-26 15 -54 15q-70 0 -70 -111h-139zM422 569h270l-100 455 q-10 47 -22 152q-3 21 -5 28h-6q-18 -127 -31 -172z" />
<glyph unicode="&#xc4;" horiz-adv-x="1126" d="M10 0l398 1434h321l381 -1434h-291l-80 352h-358l-82 -352h-289zM231 1704q0 60 39 99t100 39q60 0 98.5 -38.5t38.5 -99.5q0 -58 -36 -97.5t-101 -39.5q-60 0 -99.5 39t-39.5 98zM422 569h270l-100 455q-10 47 -22 152q-3 21 -5 28h-6q-18 -127 -31 -172zM612 1704 q0 60 39 99t100 39q60 0 98.5 -38.5t38.5 -99.5q0 -58 -36 -97.5t-101 -39.5q-60 0 -99.5 39t-39.5 98z" />
<glyph unicode="&#xc5;" horiz-adv-x="1126" d="M10 0l387 1397q-51 54 -51 133q0 97 61 159t158 62q98 0 159.5 -61.5t61.5 -159.5q0 -77 -47 -131l371 -1399h-291l-80 352h-358l-82 -352h-289zM422 569h270l-100 455q-10 47 -22 152q-3 21 -5 28h-6q-18 -127 -31 -172zM473 1528q0 -38 25.5 -66t68.5 -28q44 0 68 29 t24 69q0 38 -24 66t-68 28q-43 0 -68.5 -29t-25.5 -69z" />
<glyph unicode="&#xc6;" horiz-adv-x="1503" d="M-4 0l534 1434h895v-240h-383v-356h357v-238h-357v-362h408v-238h-684v350h-352l-119 -350h-299zM481 569h285v625h-78z" />
<glyph unicode="&#xc7;" horiz-adv-x="975" d="M74 684q0 374 154 574t434 200q131 0 241 -49v-268q-102 76 -225 76q-148 0 -233 -136.5t-85 -371.5q0 -232 81 -362t225 -130q124 0 237 82v-256q-128 -68 -276 -68v-67q145 -16 145 -160q0 -197 -242 -197q-16 0 -75 9v121q35 -11 57 -11q80 0 80 78q0 29 -19.5 50.5 t-54.5 21.5h-15q-6 0 -16 -2v174q-197 49 -305 231t-108 461z" />
<glyph unicode="&#xc8;" horiz-adv-x="858" d="M121 0v1434h659v-238h-383v-358h359v-238h-359v-362h408v-238h-684zM162 1891h227l215 -324h-188z" />
<glyph unicode="&#xc9;" horiz-adv-x="858" d="M121 0v1434h659v-238h-383v-358h359v-238h-359v-362h408v-238h-684zM326 1567l217 324h225l-251 -324h-191z" />
<glyph unicode="&#xca;" horiz-adv-x="858" d="M121 0v1434h659v-238h-383v-358h359v-238h-359v-362h408v-238h-684zM164 1567l190 326h193l190 -326h-174l-117 197l-118 -197h-164z" />
<glyph unicode="&#xcb;" horiz-adv-x="858" d="M121 0v1434h659v-238h-383v-358h359v-238h-359v-362h408v-238h-684zM129 1704q0 60 39 99t100 39q60 0 98.5 -38.5t38.5 -99.5q0 -58 -36 -97.5t-101 -39.5q-60 0 -99.5 39t-39.5 98zM510 1704q0 60 39 99t100 39q60 0 98.5 -38.5t38.5 -99.5q0 -58 -36 -97.5t-101 -39.5 q-60 0 -99.5 39t-39.5 98z" />
<glyph unicode="&#xcc;" horiz-adv-x="518" d="M-50 1891h227l215 -324h-188zM121 0v1434h276v-1434h-276z" />
<glyph unicode="&#xcd;" horiz-adv-x="518" d="M90 1567l217 324h225l-251 -324h-191zM121 0v1434h276v-1434h-276z" />
<glyph unicode="&#xce;" horiz-adv-x="518" d="M-21 1567l190 326h193l190 -326h-174l-117 197l-118 -197h-164zM121 0v1434h276v-1434h-276z" />
<glyph unicode="&#xcf;" horiz-adv-x="518" d="M-64 1704q0 60 39 99t100 39q60 0 98.5 -38.5t38.5 -99.5q0 -58 -36 -97.5t-101 -39.5q-60 0 -99.5 39t-39.5 98zM121 0v1434h276v-1434h-276zM317 1704q0 60 39 99t100 39q60 0 98.5 -38.5t38.5 -99.5q0 -58 -36 -97.5t-101 -39.5q-60 0 -99.5 39t-39.5 98z" />
<glyph unicode="&#xd0;" horiz-adv-x="1171" d="M-10 608v219h131v607h379q600 0 600 -699q0 -330 -153 -532.5t-447 -202.5h-379v608h-131zM397 238h111q144 0 224.5 131t80.5 362q0 218 -78.5 341.5t-228.5 123.5h-109v-369h203v-219h-203v-370z" />
<glyph unicode="&#xd1;" horiz-adv-x="1163" d="M121 0v1434h313l318 -838q15 -40 61 -205h2l-4 236v807h231v-1434h-307l-319 819q-20 52 -52 163q-8 28 -14 46h-4q6 -167 6 -293v-735h-231zM297 1567q0 129 51 200.5t129 71.5q70 0 139 -43q84 -49 115 -49q64 0 64 113h139q0 -128 -49.5 -200.5t-128.5 -72.5 q-40 0 -76.5 13t-119.5 62q-26 15 -54 15q-70 0 -70 -110h-139z" />
<glyph unicode="&#xd2;" horiz-adv-x="1174" d="M74 698q0 361 136.5 560.5t385.5 199.5q248 0 376 -188t128 -549q0 -356 -134 -551t-384 -195q-243 0 -375.5 190t-132.5 533zM291 1891h227l215 -324h-188zM360 715q0 -498 228 -498q110 0 167.5 127t57.5 363q0 510 -219 510q-234 0 -234 -502z" />
<glyph unicode="&#xd3;" horiz-adv-x="1174" d="M74 698q0 361 136.5 560.5t385.5 199.5q248 0 376 -188t128 -549q0 -356 -134 -551t-384 -195q-243 0 -375.5 190t-132.5 533zM360 715q0 -498 228 -498q110 0 167.5 127t57.5 363q0 510 -219 510q-234 0 -234 -502zM438 1567l217 324h225l-251 -324h-191z" />
<glyph unicode="&#xd4;" horiz-adv-x="1174" d="M74 698q0 361 136.5 560.5t385.5 199.5q248 0 376 -188t128 -549q0 -356 -134 -551t-384 -195q-243 0 -375.5 190t-132.5 533zM309 1567l190 326h193l190 -326h-174l-117 197l-118 -197h-164zM360 715q0 -498 228 -498q110 0 167.5 127t57.5 363q0 510 -219 510 q-234 0 -234 -502z" />
<glyph unicode="&#xd5;" horiz-adv-x="1174" d="M74 698q0 361 136.5 560.5t385.5 199.5q248 0 376 -188t128 -549q0 -356 -134 -551t-384 -195q-243 0 -375.5 190t-132.5 533zM252 1567q0 128 50 199.5t130 71.5q66 0 139 -41q82 -50 113 -50q66 0 66 113h139q0 -128 -50.5 -200t-129.5 -72q-43 0 -77 13t-117 62 q-26 15 -54 15q-70 0 -70 -111h-139zM360 715q0 -498 228 -498q110 0 167.5 127t57.5 363q0 510 -219 510q-234 0 -234 -502z" />
<glyph unicode="&#xd6;" horiz-adv-x="1174" d="M74 698q0 361 136.5 560.5t385.5 199.5q248 0 376 -188t128 -549q0 -356 -134 -551t-384 -195q-243 0 -375.5 190t-132.5 533zM252 1704q0 60 39 99t100 39q60 0 98.5 -38.5t38.5 -99.5q0 -58 -36 -97.5t-101 -39.5q-60 0 -99.5 39t-39.5 98zM360 715q0 -498 228 -498 q110 0 167.5 127t57.5 363q0 510 -219 510q-234 0 -234 -502zM633 1704q0 60 39 99t100 39q60 0 98.5 -38.5t38.5 -99.5q0 -58 -36 -97.5t-101 -39.5q-60 0 -99.5 39t-39.5 98z" />
<glyph unicode="&#xd7;" horiz-adv-x="1067" d="M104 287l312 311l-307 309l114 117l312 -309l309 309l117 -117l-310 -309l312 -311l-119 -115l-309 309l-314 -311z" />
<glyph unicode="&#xd8;" horiz-adv-x="1174" d="M51 37l121 184q-98 176 -98 477q0 359 134.5 559.5t387.5 200.5q183 0 305 -106l88 137l119 -76l-115 -176q107 -180 107 -516q0 -359 -133.5 -552.5t-384.5 -193.5q-195 0 -322 127l-98 -151zM360 713q0 -71 21 -181l364 588q-51 94 -149 94q-236 0 -236 -501zM418 336 q53 -119 168 -119q227 0 227 500q0 142 -27 213z" />
<glyph unicode="&#xd9;" horiz-adv-x="1155" d="M113 592v842h276v-873q0 -344 174 -344q91 0 129.5 82.5t38.5 253.5v881h277v-828q0 -631 -447 -631q-448 0 -448 617zM268 1891h227l215 -324h-188z" />
<glyph unicode="&#xda;" horiz-adv-x="1155" d="M113 592v842h276v-873q0 -344 174 -344q91 0 129.5 82.5t38.5 253.5v881h277v-828q0 -631 -447 -631q-448 0 -448 617zM401 1567l217 324h225l-251 -324h-191z" />
<glyph unicode="&#xdb;" horiz-adv-x="1155" d="M113 592v842h276v-873q0 -344 174 -344q91 0 129.5 82.5t38.5 253.5v881h277v-828q0 -631 -447 -631q-448 0 -448 617zM275 1567l190 326h193l190 -326h-174l-117 197l-118 -197h-164z" />
<glyph unicode="&#xdc;" horiz-adv-x="1155" d="M113 592v842h276v-873q0 -344 174 -344q91 0 129.5 82.5t38.5 253.5v881h277v-828q0 -631 -447 -631q-448 0 -448 617zM231 1704q0 60 39 99t100 39q60 0 98.5 -38.5t38.5 -99.5q0 -58 -36 -97.5t-101 -39.5q-60 0 -99.5 39t-39.5 98zM612 1704q0 60 39 99t100 39 q60 0 98.5 -38.5t38.5 -99.5q0 -58 -36 -97.5t-101 -39.5q-60 0 -99.5 39t-39.5 98z" />
<glyph unicode="&#xdd;" horiz-adv-x="983" d="M8 1434h316l151 -514q10 -34 17 -80q6 -39 12 -70h4q16 116 24 143l154 521h291l-346 -924v-510h-277v504zM405 1567l217 324h225l-251 -324h-191z" />
<glyph unicode="&#xde;" horiz-adv-x="1024" d="M121 0v1434h276v-203h138q210 0 321 -119t111 -338q0 -214 -126 -349.5t-329 -135.5h-115v-289h-276zM397 526h95q90 0 139 62t49 174q0 115 -51.5 173t-139.5 58h-92v-467z" />
<glyph unicode="&#xdf;" horiz-adv-x="1004" d="M104 0v1040q0 494 398 494q182 0 280.5 -101.5t98.5 -275.5q0 -245 -203 -346v-4q127 -41 198.5 -149t71.5 -252q0 -186 -96 -305t-258 -119q-84 0 -150 24v211q40 -24 86 -24q71 0 109.5 61t38.5 162q0 105 -61.5 188t-165.5 105v165q159 47 159 252q0 195 -116 195 q-129 0 -129 -248v-1073h-261z" />
<glyph unicode="&#xe0;" horiz-adv-x="893" d="M53 279q0 287 285 346l203 41v28q0 140 -150 140q-121 0 -264 -97v230q160 75 309 75q197 0 281 -96t84 -311v-635h-260v135h-4q-74 -153 -242 -153q-108 0 -175 80.5t-67 216.5zM158 1485h227l215 -324h-188zM305 319q0 -63 29.5 -96t71.5 -33q64 0 99.5 54.5 t35.5 148.5v103l-119 -25q-117 -25 -117 -152z" />
<glyph unicode="&#xe1;" horiz-adv-x="893" d="M53 279q0 287 285 346l203 41v28q0 140 -150 140q-121 0 -264 -97v230q160 75 309 75q197 0 281 -96t84 -311v-635h-260v135h-4q-74 -153 -242 -153q-108 0 -175 80.5t-67 216.5zM266 1161l217 324h225l-251 -324h-191zM305 319q0 -63 29.5 -96t71.5 -33q64 0 99.5 54.5 t35.5 148.5v103l-119 -25q-117 -25 -117 -152z" />
<glyph unicode="&#xe2;" horiz-adv-x="893" d="M53 279q0 287 285 346l203 41v28q0 140 -150 140q-121 0 -264 -97v230q160 75 309 75q197 0 281 -96t84 -311v-635h-260v135h-4q-74 -153 -242 -153q-108 0 -175 80.5t-67 216.5zM158 1161l190 326h193l190 -326h-174l-117 197l-118 -197h-164zM305 319q0 -63 29.5 -96 t71.5 -33q64 0 99.5 54.5t35.5 148.5v103l-119 -25q-117 -25 -117 -152z" />
<glyph unicode="&#xe3;" horiz-adv-x="893" d="M53 279q0 287 285 346l203 41v28q0 140 -150 140q-121 0 -264 -97v230q160 75 309 75q197 0 281 -96t84 -311v-635h-260v135h-4q-74 -153 -242 -153q-108 0 -175 80.5t-67 216.5zM109 1161q0 128 50 199.5t130 71.5q66 0 139 -41q82 -50 113 -50q66 0 66 113h139 q0 -128 -50.5 -200t-129.5 -72q-43 0 -77 13t-117 62q-26 15 -54 15q-70 0 -70 -111h-139zM305 319q0 -63 29.5 -96t71.5 -33q64 0 99.5 54.5t35.5 148.5v103l-119 -25q-117 -25 -117 -152z" />
<glyph unicode="&#xe4;" horiz-adv-x="893" d="M53 279q0 287 285 346l203 41v28q0 140 -150 140q-121 0 -264 -97v230q160 75 309 75q197 0 281 -96t84 -311v-635h-260v135h-4q-74 -153 -242 -153q-108 0 -175 80.5t-67 216.5zM107 1298q0 60 39 99t100 39q60 0 98.5 -38.5t38.5 -99.5q0 -58 -36 -97.5t-101 -39.5 q-60 0 -99.5 39t-39.5 98zM305 319q0 -63 29.5 -96t71.5 -33q64 0 99.5 54.5t35.5 148.5v103l-119 -25q-117 -25 -117 -152zM488 1298q0 60 39 99t100 39q60 0 98.5 -38.5t38.5 -99.5q0 -58 -36 -97.5t-101 -39.5q-60 0 -99.5 39t-39.5 98z" />
<glyph unicode="&#xe5;" horiz-adv-x="893" d="M53 279q0 287 285 346l203 41v28q0 140 -150 140q-121 0 -264 -97v230q160 75 309 75q197 0 281 -96t84 -311v-635h-260v135h-4q-74 -153 -242 -153q-108 0 -175 80.5t-67 216.5zM223 1380q0 100 63 161t158 61t157 -61.5t62 -160.5t-62 -159t-157 -60q-96 0 -158.5 60 t-62.5 159zM305 319q0 -63 29.5 -96t71.5 -33q64 0 99.5 54.5t35.5 148.5v103l-119 -25q-117 -25 -117 -152zM350 1380q0 -40 25.5 -68t68.5 -28t67.5 28.5t24.5 69.5q0 95 -92 95q-43 0 -68.5 -29t-25.5 -68z" />
<glyph unicode="&#xe6;" horiz-adv-x="1335" d="M53 281q0 141 74 229t209 108l205 33q0 105 -37 144t-113 39q-131 0 -266 -99v228q147 79 293 79q180 0 254 -127h4q88 127 256 127q364 0 364 -489v-121h-526q19 -242 234 -242q113 0 229 72v-215q-124 -65 -275 -65q-107 0 -206 47t-146 131h-4q-113 -178 -278 -178 q-127 0 -199 81t-72 218zM305 319q0 -55 26 -92t75 -37q63 0 99 59.5t36 162.5v71l-111 -14q-125 -16 -125 -150zM774 616h277q0 226 -127 226q-141 0 -150 -226z" />
<glyph unicode="&#xe7;" horiz-adv-x="725" d="M63 489q0 259 118.5 406t310.5 147q124 0 178 -43v-229q-56 59 -138 59q-91 0 -144.5 -88t-53.5 -233q0 -152 49 -231.5t137 -79.5q86 0 150 57v-213q-67 -55 -195 -59v-74q146 -16 146 -160q0 -197 -242 -197q-16 0 -76 9v121q35 -11 57 -11q80 0 80 78q0 72 -73 72h-16 q-6 0 -15 -2v186q-126 49 -199.5 179.5t-73.5 305.5z" />
<glyph unicode="&#xe8;" horiz-adv-x="887" d="M63 510q0 233 110 382.5t308 149.5q180 0 273.5 -122.5t93.5 -350.5v-139h-522q4 -240 225 -240q115 0 235 70v-215q-131 -63 -274 -63q-216 0 -332.5 135t-116.5 393zM201 1485h227l215 -324h-188zM326 614h276q0 108 -27.5 168t-99.5 60q-139 0 -149 -228z" />
<glyph unicode="&#xe9;" horiz-adv-x="887" d="M63 510q0 233 110 382.5t308 149.5q180 0 273.5 -122.5t93.5 -350.5v-139h-522q4 -240 225 -240q115 0 235 70v-215q-131 -63 -274 -63q-216 0 -332.5 135t-116.5 393zM317 1161l217 324h225l-251 -324h-191zM326 614h276q0 108 -27.5 168t-99.5 60q-139 0 -149 -228z " />
<glyph unicode="&#xea;" horiz-adv-x="887" d="M63 510q0 233 110 382.5t308 149.5q180 0 273.5 -122.5t93.5 -350.5v-139h-522q4 -240 225 -240q115 0 235 70v-215q-131 -63 -274 -63q-216 0 -332.5 135t-116.5 393zM172 1161l190 326h193l190 -326h-174l-117 197l-118 -197h-164zM326 614h276q0 108 -27.5 168 t-99.5 60q-139 0 -149 -228z" />
<glyph unicode="&#xeb;" horiz-adv-x="887" d="M63 510q0 233 110 382.5t308 149.5q180 0 273.5 -122.5t93.5 -350.5v-139h-522q4 -240 225 -240q115 0 235 70v-215q-131 -63 -274 -63q-216 0 -332.5 135t-116.5 393zM129 1298q0 60 39 99t100 39q60 0 98.5 -38.5t38.5 -99.5q0 -58 -36 -97.5t-101 -39.5 q-60 0 -99.5 39t-39.5 98zM326 614h276q0 108 -27.5 168t-99.5 60q-139 0 -149 -228zM510 1298q0 60 39 99t100 39q60 0 98.5 -38.5t38.5 -99.5q0 -58 -36 -97.5t-101 -39.5q-60 0 -99.5 39t-39.5 98z" />
<glyph unicode="&#xec;" horiz-adv-x="471" d="M-54 1485h227l215 -324h-188zM104 0v1024h261v-1024h-261z" />
<glyph unicode="&#xed;" horiz-adv-x="471" d="M60 1161l217 324h225l-251 -324h-191zM104 0v1024h261v-1024h-261z" />
<glyph unicode="&#xee;" horiz-adv-x="471" d="M-44 1161l190 326h193l190 -326h-174l-117 197l-118 -197h-164zM104 0v1024h261v-1024h-261z" />
<glyph unicode="&#xef;" horiz-adv-x="471" d="M-91 1298q0 60 39 99t100 39q60 0 98.5 -38.5t38.5 -99.5q0 -58 -36 -97.5t-101 -39.5q-60 0 -99.5 39t-39.5 98zM104 0v1024h261v-1024h-261zM290 1298q0 60 39 99t100 39q60 0 98.5 -38.5t38.5 -99.5q0 -58 -36 -97.5t-101 -39.5q-60 0 -99.5 39t-39.5 98z" />
<glyph unicode="&#xf0;" horiz-adv-x="956" d="M63 514q0 252 104 387t253 135q89 0 141 -55h6q-59 127 -151 225l-223 -141l-89 129l207 123q-125 124 -211 199h285q16 -13 46 -43q13 -14 27 -27l23 -23l193 121l80 -127l-162 -102q301 -341 301 -783q0 -255 -109.5 -402.5t-306.5 -147.5q-201 0 -307.5 138.5 t-106.5 393.5zM334 514q0 -317 145 -317q144 0 144 329q0 301 -144 301q-145 0 -145 -313z" />
<glyph unicode="&#xf1;" horiz-adv-x="979" d="M104 0v1024h261v-147h4q73 165 252 165q260 0 260 -315v-727h-258v662q0 165 -125 165q-60 0 -96.5 -46.5t-36.5 -121.5v-659h-261zM158 1161q0 128 50 199.5t130 71.5q66 0 139 -41q82 -50 113 -50q66 0 66 113h139q0 -128 -50.5 -200t-129.5 -72q-43 0 -77 13t-117 62 q-26 15 -54 15q-70 0 -70 -111h-139z" />
<glyph unicode="&#xf2;" horiz-adv-x="958" d="M63 514q0 253 111 390.5t307 137.5q197 0 306.5 -136t109.5 -378q0 -264 -108.5 -405t-311.5 -141q-198 0 -306 139t-108 393zM197 1485h227l215 -324h-188zM334 516q0 -319 147 -319q146 0 146 329q0 301 -146 301q-147 0 -147 -311z" />
<glyph unicode="&#xf3;" horiz-adv-x="958" d="M63 514q0 253 111 390.5t307 137.5q197 0 306.5 -136t109.5 -378q0 -264 -108.5 -405t-311.5 -141q-198 0 -306 139t-108 393zM315 1161l217 324h225l-251 -324h-191zM334 516q0 -319 147 -319q146 0 146 329q0 301 -146 301q-147 0 -147 -311z" />
<glyph unicode="&#xf4;" horiz-adv-x="958" d="M63 514q0 253 111 390.5t307 137.5q197 0 306.5 -136t109.5 -378q0 -264 -108.5 -405t-311.5 -141q-198 0 -306 139t-108 393zM191 1161l190 326h193l190 -326h-174l-117 197l-118 -197h-164zM334 516q0 -319 147 -319q146 0 146 329q0 301 -146 301q-147 0 -147 -311z " />
<glyph unicode="&#xf5;" horiz-adv-x="958" d="M63 514q0 253 111 390.5t307 137.5q197 0 306.5 -136t109.5 -378q0 -264 -108.5 -405t-311.5 -141q-198 0 -306 139t-108 393zM141 1161q0 128 50 199.5t130 71.5q66 0 139 -41q82 -50 113 -50q66 0 66 113h139q0 -128 -50.5 -200t-129.5 -72q-43 0 -77 13t-117 62 q-26 15 -54 15q-70 0 -70 -111h-139zM334 516q0 -319 147 -319q146 0 146 329q0 301 -146 301q-147 0 -147 -311z" />
<glyph unicode="&#xf6;" horiz-adv-x="958" d="M63 514q0 253 111 390.5t307 137.5q197 0 306.5 -136t109.5 -378q0 -264 -108.5 -405t-311.5 -141q-198 0 -306 139t-108 393zM150 1298q0 60 39 99t100 39q60 0 98.5 -38.5t38.5 -99.5q0 -58 -36 -97.5t-101 -39.5q-60 0 -99.5 39t-39.5 98zM334 516q0 -319 147 -319 q146 0 146 329q0 301 -146 301q-147 0 -147 -311zM531 1298q0 60 39 99t100 39q60 0 98.5 -38.5t38.5 -99.5q0 -58 -36 -97.5t-101 -39.5q-60 0 -99.5 39t-39.5 98z" />
<glyph unicode="&#xf7;" horiz-adv-x="1067" d="M123 516v164h819v-164h-819zM418 225q0 51 34 85t85 34t81.5 -33t30.5 -84t-33 -83.5t-79 -32.5q-49 0 -84 34t-35 80zM420 967q0 48 34 83t85 35q52 0 83 -32t31 -84q0 -50 -33.5 -83.5t-80.5 -33.5q-50 0 -84.5 34t-34.5 81z" />
<glyph unicode="&#xf8;" horiz-adv-x="958" d="M23 4l116 164q-76 134 -76 346q0 251 110.5 389.5t307.5 138.5q147 0 236 -73l102 139l113 -84l-115 -160q80 -131 80 -340q0 -257 -107 -399.5t-309 -142.5q-157 0 -245 77l-101 -139zM315 518q0 -59 13 -100l254 366q-40 62 -101 62q-166 0 -166 -328zM371 242 q50 -62 112 -62q156 0 156 332q0 51 -12 96z" />
<glyph unicode="&#xf9;" horiz-adv-x="979" d="M96 297v727h260v-662q0 -165 125 -165q60 0 96.5 46.5t36.5 121.5v659h260v-1024h-260v147h-4q-76 -165 -252 -165q-262 0 -262 315zM195 1485h227l215 -324h-188z" />
<glyph unicode="&#xfa;" horiz-adv-x="979" d="M96 297v727h260v-662q0 -165 125 -165q60 0 96.5 46.5t36.5 121.5v659h260v-1024h-260v147h-4q-76 -165 -252 -165q-262 0 -262 315zM313 1161l217 324h225l-251 -324h-191z" />
<glyph unicode="&#xfb;" horiz-adv-x="979" d="M96 297v727h260v-662q0 -165 125 -165q60 0 96.5 46.5t36.5 121.5v659h260v-1024h-260v147h-4q-76 -165 -252 -165q-262 0 -262 315zM197 1161l190 326h193l190 -326h-174l-117 197l-118 -197h-164z" />
<glyph unicode="&#xfc;" horiz-adv-x="979" d="M96 297v727h260v-662q0 -165 125 -165q60 0 96.5 46.5t36.5 121.5v659h260v-1024h-260v147h-4q-76 -165 -252 -165q-262 0 -262 315zM152 1298q0 60 39 99t100 39q60 0 98.5 -38.5t38.5 -99.5q0 -58 -36 -97.5t-101 -39.5q-60 0 -99.5 39t-39.5 98zM533 1298q0 60 39 99 t100 39q60 0 98.5 -38.5t38.5 -99.5q0 -58 -36 -97.5t-101 -39.5q-60 0 -99.5 39t-39.5 98z" />
<glyph unicode="&#xfd;" horiz-adv-x="860" d="M-8 1024h291l133 -604q18 -80 26 -174h2q3 15 6 36q10 70 25 136l135 606h269l-316 -1102q-116 -403 -368 -403q-88 0 -158 32v211q37 -28 100 -28q93 0 131 116l49 152zM348 1161l217 324h225l-251 -324h-191z" />
<glyph unicode="&#xfe;" horiz-adv-x="977" d="M104 -463v1979h261v-635h2q77 161 243 161q145 0 224 -128.5t79 -364.5q0 -269 -87 -418t-246 -149q-140 0 -213 127h-2v-572h-261zM358 469q0 -131 37 -202.5t103 -71.5q145 0 145 344q0 288 -139 288q-146 0 -146 -286v-72z" />
<glyph unicode="&#xff;" horiz-adv-x="860" d="M-8 1024h291l133 -604q18 -80 26 -174h2q3 15 6 36q10 70 25 136l135 606h269l-316 -1102q-116 -403 -368 -403q-88 0 -158 32v211q37 -28 100 -28q93 0 131 116l49 152zM115 1298q0 60 39 99t100 39q60 0 98.5 -38.5t38.5 -99.5q0 -58 -36 -97.5t-101 -39.5 q-60 0 -99.5 39t-39.5 98zM496 1298q0 60 39 99t100 39q60 0 98.5 -38.5t38.5 -99.5q0 -58 -36 -97.5t-101 -39.5q-60 0 -99.5 39t-39.5 98z" />
<glyph unicode="&#x152;" horiz-adv-x="1505" d="M74 698q0 366 139.5 563t400.5 197q52 0 118 -11q65 -12 87 -13h608v-238h-383v-358h357v-238h-357v-362h408v-238h-653q-12 0 -41 -5q-118 -20 -168 -20q-247 0 -381.5 192t-134.5 531zM360 705q0 -232 62 -360t184 -128q78 0 137 41v926q-64 33 -139 33 q-119 0 -181.5 -135.5t-62.5 -376.5z" />
<glyph unicode="&#x153;" horiz-adv-x="1477" d="M63 514q0 246 110 387t294 141q201 0 299 -176h2q104 176 299 176q174 0 266 -128t92 -355v-127h-528q15 -242 227 -242q134 0 240 78v-217q-106 -71 -285 -71q-220 0 -317 174h-4q-104 -172 -297 -172q-185 0 -291.5 141t-106.5 391zM334 514q0 -317 151 -317 q150 0 150 329q0 301 -150 301q-151 0 -151 -313zM899 614h279q0 228 -127 228q-140 0 -152 -228z" />
<glyph unicode="&#x178;" horiz-adv-x="983" d="M8 1434h316l151 -514q10 -34 17 -80q6 -39 12 -70h4q16 116 24 143l154 521h291l-346 -924v-510h-277v504zM172 1704q0 60 39 99t100 39q60 0 98.5 -38.5t38.5 -99.5q0 -58 -36 -97.5t-101 -39.5q-60 0 -99.5 39t-39.5 98zM553 1704q0 60 39 99t100 39q60 0 98.5 -38.5 t38.5 -99.5q0 -58 -36 -97.5t-101 -39.5q-60 0 -99.5 39t-39.5 98z" />
<glyph unicode="&#x2c6;" horiz-adv-x="645" d="M35 1161l190 326h193l190 -326h-174l-117 197l-118 -197h-164z" />
<glyph unicode="&#x2dc;" horiz-adv-x="625" d="M0 1161q0 128 50 199.5t130 71.5q66 0 139 -41q82 -50 113 -50q66 0 66 113h139q0 -128 -50.5 -200t-129.5 -72q-43 0 -77 13t-117 62q-26 15 -54 15q-70 0 -70 -111h-139z" />
<glyph unicode="&#x2000;" horiz-adv-x="946" />
<glyph unicode="&#x2001;" horiz-adv-x="1893" />
<glyph unicode="&#x2002;" horiz-adv-x="946" />
<glyph unicode="&#x2003;" horiz-adv-x="1893" />
<glyph unicode="&#x2004;" horiz-adv-x="631" />
<glyph unicode="&#x2005;" horiz-adv-x="473" />
<glyph unicode="&#x2006;" horiz-adv-x="315" />
<glyph unicode="&#x2007;" horiz-adv-x="315" />
<glyph unicode="&#x2008;" horiz-adv-x="236" />
<glyph unicode="&#x2009;" horiz-adv-x="378" />
<glyph unicode="&#x200a;" horiz-adv-x="105" />
<glyph unicode="&#x2010;" horiz-adv-x="643" d="M111 467v184h424v-184h-424z" />
<glyph unicode="&#x2011;" horiz-adv-x="643" d="M111 467v184h424v-184h-424z" />
<glyph unicode="&#x2012;" horiz-adv-x="643" d="M111 467v184h424v-184h-424z" />
<glyph unicode="&#x2013;" horiz-adv-x="1024" d="M0 467v184h1024v-184h-1024z" />
<glyph unicode="&#x2014;" horiz-adv-x="2048" d="M0 467v184h2048v-184h-2048z" />
<glyph unicode="&#x2018;" horiz-adv-x="496" d="M88 1016l164 446h160l-93 -446h-231z" />
<glyph unicode="&#x2019;" horiz-adv-x="496" d="M84 1016l96 446h230l-168 -446h-158z" />
<glyph unicode="&#x201a;" horiz-adv-x="496" d="M84 -225l96 444h230l-168 -444h-158z" />
<glyph unicode="&#x201c;" horiz-adv-x="827" d="M88 1016l164 446h160l-93 -446h-231zM420 1016l166 446h157l-94 -446h-229z" />
<glyph unicode="&#x201d;" horiz-adv-x="827" d="M84 1016l94 446h230l-166 -446h-158zM418 1016l94 446h229l-166 -446h-157z" />
<glyph unicode="&#x201e;" horiz-adv-x="827" d="M84 -225l96 444h230l-168 -444h-158zM418 -225l94 444h229l-166 -444h-157z" />
<glyph unicode="&#x2022;" horiz-adv-x="752" d="M106 596q0 108 78.5 187t188.5 79t188 -79.5t78 -186.5t-78 -186.5t-188 -79.5t-188.5 79t-78.5 187z" />
<glyph unicode="&#x2026;" horiz-adv-x="1599" d="M104 143q0 72 45 117t117 45t116 -46t44 -116q0 -69 -43.5 -115t-116.5 -46q-70 0 -116 46t-46 115zM639 143q0 74 44.5 118t115.5 44q74 0 118 -46t44 -116t-44.5 -115.5t-117.5 -45.5q-69 0 -114.5 45t-45.5 116zM1174 143q0 73 43.5 117.5t115.5 44.5 q73 0 117.5 -44.5t44.5 -117.5q0 -69 -43.5 -115t-118.5 -46q-69 0 -114 45.5t-45 115.5z" />
<glyph unicode="&#x202f;" horiz-adv-x="378" />
<glyph unicode="&#x2039;" horiz-adv-x="565" d="M47 537l256 344h215l-260 -344l260 -336h-215z" />
<glyph unicode="&#x203a;" horiz-adv-x="565" d="M47 201l260 338l-258 342h213l258 -342l-258 -338h-215z" />
<glyph unicode="&#x205f;" horiz-adv-x="473" />
<glyph unicode="&#x20ac;" d="M78 469v162h82q0 140 2 162h-84v159h100q38 239 159 372.5t302 133.5q129 0 215 -55v-221q-91 88 -195 88q-94 0 -160.5 -83t-86.5 -235h336v-159h-353q-2 -20 -2 -162h355v-162h-334q20 -147 84.5 -226t154.5 -79q102 0 201 88v-209q-85 -68 -244 -68q-168 0 -282.5 130 t-149.5 364h-100z" />
<glyph unicode="&#x2122;" horiz-adv-x="1579" d="M53 1321v113h514v-113h-190v-549h-137v549h-187zM639 772v662h190l175 -473h4l186 473h178v-662h-133v465h-6l-176 -465h-117l-164 467h-6v-467h-131z" />
<glyph unicode="&#x25fc;" horiz-adv-x="1025" d="M0 0v1025h1025v-1025h-1025z" />
<glyph unicode="&#xfb01;" horiz-adv-x="1018" d="M16 811v213h119v154q0 167 87 261.5t253 94.5q35 0 61 -5q25 -6 44 -9v-213q-32 12 -76 12q-109 0 -109 -131v-164h166v-213h-166v-811h-260v811h-119zM625 1325q0 72 45 115t114 43q72 0 115 -43.5t43 -114.5t-43 -115.5t-115 -44.5q-71 0 -115 47t-44 113zM653 0v1024 h260v-1024h-260z" />
<glyph unicode="&#xfb02;" horiz-adv-x="1018" d="M16 811v213h119v154q0 167 87 261.5t253 94.5q35 0 61 -5q25 -6 44 -9v-213q-32 12 -76 12q-109 0 -109 -131v-164h166v-213h-166v-811h-260v811h-119zM653 0v1516h260v-1516h-260z" />
</font>
</defs>
</svg>
